Coordinates
version=1
nRows=8
nColumns=34
inDegrees=yes

Units are S.I. units (second, meters, Newtons, ...)
If the header above contains a line with 'inDegrees', this indicates whether rotational values are in degrees (yes) or radians (no).

endheader
time	pelvis_tilt	pelvis_list	pelvis_rotation	pelvis_tx	pelvis_ty	pelvis_tz	hip_flexion_r	hip_adduction_r	hip_rotation_r	knee_angle_r	ankle_angle_r	subtalar_angle_r	mtp_angle_r	hip_flexion_l	hip_adduction_l	hip_rotation_l	knee_angle_l	ankle_angle_l	subtalar_angle_l	mtp_angle_l	lumbar_extension	lumbar_bending	lumbar_rotation	arm_flex_r	arm_add_r	arm_rot_r	elbow_flex_r	pro_sup_r	arm_flex_l	arm_add_l	arm_rot_l	elbow_flex_l	pro_sup_l
      1.95000000	     -7.12433649	     -0.70511734	      4.42874896	      0.03345396	      0.84004592	     -0.06418832	     15.20909078	     -7.00965740	     -7.47400845	     19.18748265	      9.11821867	    -12.24686167	      0.00000000	     15.30809318	     -5.65586129	     -9.21141320	     17.91800645	      3.61928472	    -14.74195484	      0.00000000	    -13.51431779	     -1.77576607	      3.28441929	    117.54387672	      4.37300471	     69.21899698	    124.56394060	    100.91383288	    103.48682736	      8.44595429	     68.67138847	    121.28068734	     91.79300097
      1.96666670	     -7.34822462	     -0.68632005	      4.43398525	      0.03654248	      0.83860449	     -0.06437581	     13.73061099	     -6.76301966	     -7.60534664	     16.44956086	      8.06956625	    -12.18445746	      0.00000000	     13.89282231	     -5.29782791	     -9.73987146	     15.17827324	      2.47502854	    -14.39245349	      0.00000000	    -12.23708619	     -1.66518818	      3.61744466	    116.97314852	      4.67432324	     69.72702271	    125.97317277	    101.09738330	    102.69283680	      8.96681817	     68.27729505	    122.46417842	     91.84852984
      1.98333330	     -7.47119857	     -0.62522277	      4.27528876	      0.03608485	      0.84413342	     -0.06296376	     12.27531697	     -6.45148521	     -7.50475955	     13.76982057	      7.14187180	    -12.09140155	      0.00000000	     12.53626101	     -4.96814791	    -10.06191740	     12.67385241	      1.60728383	    -14.00186504	      0.00000000	    -11.26584351	     -1.72184246	      4.20570493	    116.92427587	      4.76904262	     69.14436287	    127.18655164	    101.24686839	    101.64359771	      8.94916951	     68.07659173	    123.07950192	     91.93809344
      2.00000000	     -7.49432146	     -0.66074365	      4.11981040	      0.04000091	      0.84285133	     -0.06449047	     10.74798582	     -6.09772229	     -7.30236137	     11.22351190	      6.37751418	    -12.01406949	      0.00000000	     11.06757269	     -4.70721808	    -10.14959041	     10.34700063	      1.01891097	    -13.44346440	      0.00000000	    -10.41959202	     -1.64389064	      4.45123843	    116.52265890	      4.75614609	     68.78620728	    127.55464807	    101.38659015	    100.91607625	      8.51285223	     67.77148902	    122.35063653	     91.99385437
      2.01666670	     -7.22928154	     -0.61023462	      4.04711435	      0.04094882	      0.83850824	     -0.06369827	      9.05899269	     -5.80559131	     -6.79398488	      8.98864955	      5.91125657	    -12.47276014	      0.00000000	      9.56515619	     -4.44013934	    -10.44421610	      8.41129915	      1.05342270	    -12.86481248	      0.00000000	     -9.90901039	     -1.72107919	      4.73358811	    115.82982564	      4.68035996	     66.57126499	    128.76579994	    101.64907496	    100.38283257	      8.84392010	     66.71112243	    121.23571728	     92.13142316
      2.03333330	     -7.32579962	     -0.66379275	      4.08243084	      0.04315412	      0.83846067	     -0.06488382	      7.93069904	     -5.59322186	     -6.82741204	      6.93324200	      5.21805032	    -12.66355411	      0.00000000	      8.40477308	     -4.19913721	    -10.60733052	      6.29793017	      0.91885092	    -12.30477812	      0.00000000	     -9.23756577	     -1.73252591	      5.19375838	    115.09111917	      4.04112555	     67.61006083	    126.81088303	    101.85734734	    100.09552424	      9.21681179	     67.11175845	    120.56858882	     92.19544047
      2.05000000	     -7.25570478	     -0.73069279	      4.09324286	      0.04386003	      0.83647082	     -0.06488948	      6.75221419	     -5.33430111	     -6.38463123	      5.10772020	      4.56552817	    -13.23062735	      0.00000000	      7.22178092	     -4.04123182	    -10.84793585	      4.46730248	      1.13178901	    -11.51322650	      0.00000000	     -8.69818197	     -1.59956883	      5.39489504	    114.76747164	      3.89609437	     69.57613647	    126.08457451	    102.22046127	     99.72809481	      8.93567228	     68.23049531	    119.44061146	     92.44356691
      2.06666670	     -7.24852973	     -0.80858577	      4.00242008	      0.04714253	      0.83439718	     -0.06648455	      5.74851909	     -5.16575341	     -6.22930428	      3.61258582	      4.13638155	    -13.31717311	      0.00000000	      6.23442593	     -3.90706088	    -10.94089371	      2.99059037	      1.12234040	    -11.16806074	      0.00000000	     -8.08680685	     -1.44086675	      5.60376443	    113.74382742	      3.75890637	     70.16228113	    126.53972481	    102.34175373	     99.03014535	      9.06029272	     68.94670579	    120.20575742	     92.58341117
